<svg width="104" height="32" viewBox="0 0 104 32" fill="none" xmlns="http://www.w3.org/2000/svg">
<g clip-path="url(#clip0_1218_14245)">
<path d="M19.3488 14.1565C19.3445 14.8682 19.1946 15.5715 18.9082 16.2231C18.6218 16.8746 18.205 17.4607 17.6835 17.945C17.1621 18.4294 16.5469 18.8019 15.876 19.0395C15.2051 19.2771 14.4927 19.3748 13.7826 19.3266C12.5585 19.24 11.4034 18.7272 10.5181 17.8774C9.63278 17.0276 9.07317 15.8945 8.93652 14.675V14.1709C12.2735 15.5386 16.0156 15.5335 19.3488 14.1565Z" fill="url(#paint0_linear_1218_14245)"/>
<path fill-rule="evenodd" clip-rule="evenodd" d="M14.7254 31.44L13.2113 31.7983V28.037C10.6598 27.8105 8.21616 26.8871 6.14948 25.3636C3.9555 23.7461 2.28201 21.5228 1.33484 18.9668C0.387663 16.4109 0.208082 13.6339 0.818176 10.9773C1.42827 8.32068 2.80144 5.90028 4.76883 4.01371C6.73623 2.12714 9.21207 0.856657 11.8919 0.358479C14.5718 -0.139697 17.3388 0.156152 19.8528 1.20965C22.3667 2.26315 24.5179 4.02837 26.042 6.28825C27.5661 8.54813 28.3965 11.2042 28.4311 13.9297L28.4312 13.9361L28.4312 14.2907C28.4 18.0477 27.1785 21.6982 24.942 24.7174C22.7063 27.7356 19.5714 29.9675 15.9876 31.0924C15.5726 31.2283 15.1463 31.3417 14.7254 31.44ZM6.29562 5.96362C4.13381 8.12542 2.91932 11.0574 2.91932 14.1147C2.91932 17.1719 4.13381 20.104 6.29562 22.2658C8.45742 24.4276 11.3894 25.6421 14.4467 25.6421H15.6822V28.5998C18.589 27.5903 21.1279 25.7266 22.963 23.2478C24.8891 20.6461 25.9409 17.5008 25.9672 14.2638V13.961C25.9145 10.936 24.6795 8.05178 22.5267 5.92596C20.373 3.79941 17.4721 2.60096 14.4456 2.58733C11.3888 2.58762 8.45716 3.80207 6.29562 5.96362Z" fill="url(#paint1_linear_1218_14245)"/>
</g>
<defs>
<linearGradient id="paint0_linear_1218_14245" x1="-0.143618" y1="16.6024" x2="29.1154" y2="16.7734" gradientUnits="userSpaceOnUse">
<stop stop-color="#6C48F2"/>
<stop offset="1" stop-color="#3680FF"/>
</linearGradient>
<linearGradient id="paint1_linear_1218_14245" x1="-0.143618" y1="16.6024" x2="29.1154" y2="16.7734" gradientUnits="userSpaceOnUse">
<stop stop-color="#6C48F2"/>
<stop offset="1" stop-color="#3680FF"/>
</linearGradient>
<clipPath id="clip0_1218_14245">
<rect width="104" height="32" fill="white"/>
</clipPath>
</defs>
</svg>
